<?xml version="1.0" encoding="UTF-8" standalone="no"?><svg xmlns="http://www.w3.org/2000/svg" xmlns:xlink="http://www.w3.org/1999/xlink" contentStyleType="text/css" height="191px" preserveAspectRatio="none" style="width:332px;height:191px;background:#FFFFFF;" version="1.1" viewBox="0 0 332 191" width="332px" zoomAndPan="magnify"><defs/><g><!--MD5=[02f20927942eff1c7d6f0666f7de3783]
cluster it.edu.marconiverona.listhashmapinstances--><g id="cluster_it.edu.marconiverona.listhashmapinstances"><a href="it/edu/marconiverona/listhashmapinstances/package-summary.html" target="_parent" title="it.edu.marconiverona.listhashmapinstances" xlink:actuate="onRequest" xlink:href="it/edu/marconiverona/listhashmapinstances/package-summary.html" xlink:show="new" xlink:title="it.edu.marconiverona.listhashmapinstances" xlink:type="simple"><path d="M8.5,6.5997 L312.5,6.5997 A3.75,3.75 0 0 1 315,9.0997 L322,31.6573 L322.5,31.6573 A2.5,2.5 0 0 1 325,34.1573 L325,182.0997 A2.5,2.5 0 0 1 322.5,184.5997 L8.5,184.5997 A2.5,2.5 0 0 1 6,182.0997 L6,9.0997 A2.5,2.5 0 0 1 8.5,6.5997 " fill="none" style="stroke:#000000;stroke-width:1.5;"/><line style="stroke:#000000;stroke-width:1.5;" x1="6" x2="322" y1="31.6573" y2="31.6573"/><text fill="#000000" font-family="sans-serif" font-size="14" font-weight="bold" lengthAdjust="spacing" textLength="303" x="10" y="23.5575">it.edu.marconiverona.listhashmapinstances</text></a></g><!--MD5=[436758b24b49770ffa2cc4b0fbc18c84]
class it.edu.marconiverona.listhashmapinstances.ClasseSC--><a href="it/edu/marconiverona/listhashmapinstances/ClasseSC.html" target="_parent" title="it.edu.marconiverona.listhashmapinstances.ClasseSC" xlink:actuate="onRequest" xlink:href="it/edu/marconiverona/listhashmapinstances/ClasseSC.html" xlink:show="new" xlink:title="it.edu.marconiverona.listhashmapinstances.ClasseSC" xlink:type="simple"><g id="elem_it.edu.marconiverona.listhashmapinstances.ClasseSC"><rect codeLine="7" fill="#F1F1F1" height="32" id="it.edu.marconiverona.listhashmapinstances.ClasseSC" rx="2.5" ry="2.5" style="stroke:#181818;stroke-width:0.5;" width="92" x="46" y="44.5997"/><ellipse cx="61" cy="60.5997" fill="#ADD1B2" rx="11" ry="11" style="stroke:#181818;stroke-width:1.0;"/><path d="M60.4688,67.5216 Q58.7188,67.5216 57.5859,66.7794 Q56.4531,66.0372 55.8984,64.6857 Q55.3438,63.3341 55.3438,61.5372 Q55.3438,59.506 56,58.0529 Q56.6563,56.5997 57.9375,55.8185 Q59.2188,55.0372 61.0938,55.0372 Q61.9844,55.0372 62.6563,55.2169 Q63.3281,55.3966 64.0156,55.7404 L63.2031,57.756 Q62.5781,57.4435 62.0391,57.3185 Q61.5,57.1935 61.0156,57.1935 Q59.8438,57.1935 59.1406,57.7247 Q58.4375,58.256 58.1406,59.2091 Q57.8438,60.1622 57.8438,61.4279 Q57.8438,63.4435 58.5625,64.4044 Q59.2813,65.3654 60.875,65.3654 Q61.4688,65.3654 62.0938,65.2091 Q62.7188,65.0529 63.5469,64.6779 L63.5469,66.8966 Q62.8125,67.2091 62.0234,67.3654 Q61.2344,67.5216 60.4688,67.5216 Z " fill="#000000"/><text fill="#000000" font-family="sans-serif" font-size="14" font-weight="bold" lengthAdjust="spacing" textLength="60" x="75" y="66.0288">ClasseSC</text></g></a><!--MD5=[2eeb212886ec2bfbcef467ec46ac53b3]
class it.edu.marconiverona.listhashmapinstances.StudenteSC--><a href="it/edu/marconiverona/listhashmapinstances/StudenteSC.html" target="_parent" title="it.edu.marconiverona.listhashmapinstances.StudenteSC" xlink:actuate="onRequest" xlink:href="it/edu/marconiverona/listhashmapinstances/StudenteSC.html" xlink:show="new" xlink:title="it.edu.marconiverona.listhashmapinstances.StudenteSC" xlink:type="simple"><g id="elem_it.edu.marconiverona.listhashmapinstances.StudenteSC"><rect codeLine="13" fill="#F1F1F1" height="32" id="it.edu.marconiverona.listhashmapinstances.StudenteSC" rx="2.5" ry="2.5" style="stroke:#181818;stroke-width:0.5;" width="112" x="173" y="44.5997"/><ellipse cx="188" cy="60.5997" fill="#ADD1B2" rx="11" ry="11" style="stroke:#181818;stroke-width:1.0;"/><path d="M187.4688,67.5216 Q185.7188,67.5216 184.5859,66.7794 Q183.4531,66.0372 182.8984,64.6857 Q182.3438,63.3341 182.3438,61.5372 Q182.3438,59.506 183,58.0529 Q183.6563,56.5997 184.9375,55.8185 Q186.2188,55.0372 188.0938,55.0372 Q188.9844,55.0372 189.6563,55.2169 Q190.3281,55.3966 191.0156,55.7404 L190.2031,57.756 Q189.5781,57.4435 189.0391,57.3185 Q188.5,57.1935 188.0156,57.1935 Q186.8438,57.1935 186.1406,57.7247 Q185.4375,58.256 185.1406,59.2091 Q184.8438,60.1622 184.8438,61.4279 Q184.8438,63.4435 185.5625,64.4044 Q186.2813,65.3654 187.875,65.3654 Q188.4688,65.3654 189.0938,65.2091 Q189.7188,65.0529 190.5469,64.6779 L190.5469,66.8966 Q189.8125,67.2091 189.0234,67.3654 Q188.2344,67.5216 187.4688,67.5216 Z " fill="#000000"/><text fill="#000000" font-family="sans-serif" font-size="14" font-weight="bold" lengthAdjust="spacing" textLength="80" x="202" y="66.0288">StudenteSC</text></g></a><!--MD5=[f31822b20606b5a6f39c4f6409988f8e]
class it.edu.marconiverona.listhashmapinstances.ListHashMapInstances--><a href="it/edu/marconiverona/listhashmapinstances/ListHashMapInstances.html" target="_parent" title="it.edu.marconiverona.listhashmapinstances.ListHashMapInstances" xlink:actuate="onRequest" xlink:href="it/edu/marconiverona/listhashmapinstances/ListHashMapInstances.html" xlink:show="new" xlink:title="it.edu.marconiverona.listhashmapinstances.ListHashMapInstances" xlink:type="simple"><g id="elem_it.edu.marconiverona.listhashmapinstances.ListHashMapInstances"><rect codeLine="19" fill="#F1F1F1" height="32" id="it.edu.marconiverona.listhashmapinstances.ListHashMapInstances" rx="2.5" ry="2.5" style="stroke:#181818;stroke-width:0.5;" width="188" x="46" y="136.5997"/><ellipse cx="61" cy="152.5997" fill="#ADD1B2" rx="11" ry="11" style="stroke:#181818;stroke-width:1.0;"/><path d="M60.4688,159.5216 Q58.7188,159.5216 57.5859,158.7794 Q56.4531,158.0372 55.8984,156.6857 Q55.3438,155.3341 55.3438,153.5372 Q55.3438,151.506 56,150.0529 Q56.6563,148.5997 57.9375,147.8185 Q59.2188,147.0372 61.0938,147.0372 Q61.9844,147.0372 62.6563,147.2169 Q63.3281,147.3966 64.0156,147.7404 L63.2031,149.756 Q62.5781,149.4435 62.0391,149.3185 Q61.5,149.1935 61.0156,149.1935 Q59.8438,149.1935 59.1406,149.7247 Q58.4375,150.256 58.1406,151.2091 Q57.8438,152.1622 57.8438,153.4279 Q57.8438,155.4435 58.5625,156.4044 Q59.2813,157.3654 60.875,157.3654 Q61.4688,157.3654 62.0938,157.2091 Q62.7188,157.0529 63.5469,156.6779 L63.5469,158.8966 Q62.8125,159.2091 62.0234,159.3654 Q61.2344,159.5216 60.4688,159.5216 Z " fill="#000000"/><text fill="#000000" font-family="sans-serif" font-size="14" font-weight="bold" lengthAdjust="spacing" textLength="156" x="75" y="158.0288">ListHashMapInstances</text></g></a><!--MD5=[3af19ca5d519e732ffd1e49060adcde3]
@startuml

skinparam svgLinkTarget _parent
skinparam linetype ortho
package it.edu.marconiverona.listhashmapinstances [[it/edu/marconiverona/listhashmapinstances/package-summary.html{it.edu.marconiverona.listhashmapinstances}]] {
}

class "<b><size:14>ClasseSC</b>" as it.edu.marconiverona.listhashmapinstances.ClasseSC  [[it/edu/marconiverona/listhashmapinstances/ClasseSC.html{it.edu.marconiverona.listhashmapinstances.ClasseSC}]] {
}

hide it.edu.marconiverona.listhashmapinstances.ClasseSC fields
hide it.edu.marconiverona.listhashmapinstances.ClasseSC methods

class "<b><size:14>StudenteSC</b>" as it.edu.marconiverona.listhashmapinstances.StudenteSC  [[it/edu/marconiverona/listhashmapinstances/StudenteSC.html{it.edu.marconiverona.listhashmapinstances.StudenteSC}]] {
}

hide it.edu.marconiverona.listhashmapinstances.StudenteSC fields
hide it.edu.marconiverona.listhashmapinstances.StudenteSC methods

class "<b><size:14>ListHashMapInstances</b>" as it.edu.marconiverona.listhashmapinstances.ListHashMapInstances  [[it/edu/marconiverona/listhashmapinstances/ListHashMapInstances.html{it.edu.marconiverona.listhashmapinstances.ListHashMapInstances}]] {
}

hide it.edu.marconiverona.listhashmapinstances.ListHashMapInstances fields
hide it.edu.marconiverona.listhashmapinstances.ListHashMapInstances methods


@enduml

PlantUML version 1.2022.8(Sun Sep 25 11:00:33 CEST 2022)
(GPL source distribution)
Java Runtime: Java(TM) SE Runtime Environment
JVM: Java HotSpot(TM) 64-Bit Server VM
Default Encoding: UTF-8
Language: en
Country: null
--></g></svg>