<?xml version="1.0" encoding="UTF-8" standalone="no"?><svg xmlns="http://www.w3.org/2000/svg" xmlns:xlink="http://www.w3.org/1999/xlink" contentStyleType="text/css" height="395px" preserveAspectRatio="none" style="width:463px;height:395px;background:#FFFFFF;" version="1.1" viewBox="0 0 463 395" width="463px" zoomAndPan="magnify"><defs/><g><!--MD5=[436758b24b49770ffa2cc4b0fbc18c84]
class it.edu.marconiverona.listhashmapinstances.ClasseSC--><a href="../../../../it/edu/marconiverona/listhashmapinstances/ClasseSC.html" target="_parent" title="it.edu.marconiverona.listhashmapinstances.ClasseSC" xlink:actuate="onRequest" xlink:href="../../../../it/edu/marconiverona/listhashmapinstances/ClasseSC.html" xlink:show="new" xlink:title="it.edu.marconiverona.listhashmapinstances.ClasseSC" xlink:type="simple"><g id="elem_it.edu.marconiverona.listhashmapinstances.ClasseSC"><rect codeLine="5" fill="#F1F1F1" height="306.4179" id="it.edu.marconiverona.listhashmapinstances.ClasseSC" rx="2.5" ry="2.5" style="stroke:#181818;stroke-width:0.5;" width="301" x="7" y="44"/><ellipse cx="48.1" cy="65.335" fill="#ADD1B2" rx="11" ry="11" style="stroke:#181818;stroke-width:1.0;"/><path d="M47.5688,72.2569 Q45.8188,72.2569 44.6859,71.5147 Q43.5531,70.7725 42.9984,69.421 Q42.4438,68.0694 42.4438,66.2725 Q42.4438,64.2413 43.1,62.7881 Q43.7563,61.335 45.0375,60.5538 Q46.3188,59.7725 48.1938,59.7725 Q49.0844,59.7725 49.7563,59.9522 Q50.4281,60.1319 51.1156,60.4756 L50.3031,62.4913 Q49.6781,62.1788 49.1391,62.0538 Q48.6,61.9288 48.1156,61.9288 Q46.9438,61.9288 46.2406,62.46 Q45.5375,62.9913 45.2406,63.9444 Q44.9438,64.8975 44.9438,66.1631 Q44.9438,68.1788 45.6625,69.1397 Q46.3813,70.1006 47.975,70.1006 Q48.5688,70.1006 49.1938,69.9444 Q49.8188,69.7881 50.6469,69.4131 L50.6469,71.6319 Q49.9125,71.9444 49.1234,72.1006 Q48.3344,72.2569 47.5688,72.2569 Z " fill="#000000"/><text fill="#000000" font-family="sans-serif" font-size="14" font-weight="bold" lengthAdjust="spacing" textLength="60" x="143.4" y="63.9578">ClasseSC</text><text fill="#000000" font-family="sans-serif" font-size="10" lengthAdjust="spacing" textLength="211" x="67.9" y="78.7417">it.edu.marconiverona.listhashmapinstances</text><line style="stroke:#181818;stroke-width:0.5;" x1="8" x2="307" y1="86.67" y2="86.67"/><rect fill="none" height="6" style="stroke:#C82930;stroke-width:1.0;" width="6" x="15" y="98.6988"/><text fill="#000000" font-family="sans-serif" font-size="14" lengthAdjust="spacing" textLength="35" x="27" y="105.6278">int id</text><rect fill="none" height="6" style="stroke:#C82930;stroke-width:1.0;" width="6" x="15" y="117.7563"/><text fill="#000000" font-family="sans-serif" font-size="14" lengthAdjust="spacing" textLength="83" x="27" y="124.6853">String name</text><rect fill="none" height="6" style="stroke:#C82930;stroke-width:1.0;" width="6" x="15" y="136.8139"/><text fill="#000000" font-family="sans-serif" font-size="14" lengthAdjust="spacing" text-decoration="underline" textLength="275" x="27" y="143.7429">Map&lt;Integer, ClasseSC&gt; mappaClasseSC</text><rect fill="none" height="6" style="stroke:#C82930;stroke-width:1.0;" width="6" x="15" y="155.8714"/><text fill="#000000" font-family="sans-serif" font-size="14" lengthAdjust="spacing" textLength="213" x="27" y="162.8004">List&lt;Integer&gt; listaIdStudenteSC</text><line style="stroke:#181818;stroke-width:0.5;" x1="8" x2="307" y1="170.9001" y2="170.9001"/><ellipse cx="18" cy="185.9289" fill="#84BE84" rx="3" ry="3" style="stroke:#038048;stroke-width:1.0;"/><text fill="#000000" font-family="sans-serif" font-size="14" lengthAdjust="spacing" textLength="190" x="27" y="189.8579">ClasseSC(int id,String name)</text><ellipse cx="18" cy="204.9864" fill="#84BE84" rx="3" ry="3" style="stroke:#038048;stroke-width:1.0;"/><text fill="#000000" font-family="sans-serif" font-size="14" lengthAdjust="spacing" textLength="66" x="27" y="208.9155">int getId()</text><ellipse cx="18" cy="224.044" fill="#84BE84" rx="3" ry="3" style="stroke:#038048;stroke-width:1.0;"/><text fill="#000000" font-family="sans-serif" font-size="14" lengthAdjust="spacing" textLength="109" x="27" y="227.973">void setId(int id)</text><ellipse cx="18" cy="243.1015" fill="#84BE84" rx="3" ry="3" style="stroke:#038048;stroke-width:1.0;"/><text fill="#000000" font-family="sans-serif" font-size="14" lengthAdjust="spacing" textLength="115" x="27" y="247.0305">String getName()</text><ellipse cx="18" cy="262.159" fill="#84BE84" rx="3" ry="3" style="stroke:#038048;stroke-width:1.0;"/><text fill="#000000" font-family="sans-serif" font-size="14" lengthAdjust="spacing" textLength="183" x="27" y="266.088">void setName(String name)</text><ellipse cx="18" cy="281.2165" fill="#84BE84" rx="3" ry="3" style="stroke:#038048;stroke-width:1.0;"/><text fill="#000000" font-family="sans-serif" font-size="14" lengthAdjust="spacing" textLength="107" x="27" y="285.1456">String toString()</text><ellipse cx="18" cy="300.2741" fill="#84BE84" rx="3" ry="3" style="stroke:#038048;stroke-width:1.0;"/><text fill="#000000" font-family="sans-serif" font-size="14" lengthAdjust="spacing" text-decoration="underline" textLength="219" x="27" y="304.2031">ClasseSC getClasseSCbyId(int id)</text><ellipse cx="18" cy="319.3316" fill="#84BE84" rx="3" ry="3" style="stroke:#038048;stroke-width:1.0;"/><text fill="#000000" font-family="sans-serif" font-size="14" lengthAdjust="spacing" text-decoration="underline" textLength="215" x="27" y="323.2606">void removeClasseSCById(int id)</text><ellipse cx="18" cy="338.3891" fill="#84BE84" rx="3" ry="3" style="stroke:#038048;stroke-width:1.0;"/><text fill="#000000" font-family="sans-serif" font-size="14" lengthAdjust="spacing" textLength="271" x="27" y="342.3181">void addStudenteSCId(int idStudenteSC)</text></g></a><!--MD5=[ba4818507115bb0549fa0e6543ae7e8f]
reverse link it.edu.marconiverona.listhashmapinstances.ClasseSC to it.edu.marconiverona.listhashmapinstances.ClasseSC--><g id="link_it.edu.marconiverona.listhashmapinstances.ClasseSC_it.edu.marconiverona.listhashmapinstances.ClasseSC"><path codeLine="23" d="M157.5,29.68 C157.5,29.68 157.5,6 157.5,6 C157.5,6 350,6 350,6 C350,6 350,388 350,388 C350,388 157.5,388 157.5,388 C157.5,388 157.5,372.26 157.5,349.81 " fill="none" id="it.edu.marconiverona.listhashmapinstances.ClasseSC-backto-it.edu.marconiverona.listhashmapinstances.ClasseSC" style="stroke:#181818;stroke-width:1.0;"/><polygon fill="none" points="157.5,42.68,161.5,36.68,157.5,30.68,153.5,36.68,157.5,42.68" style="stroke:#181818;stroke-width:1.0;"/><text fill="#000000" font-family="sans-serif" font-size="13" lengthAdjust="spacing" textLength="94" x="356" y="195.1412">mappaClasseSC</text><text fill="#000000" font-family="sans-serif" font-size="13" lengthAdjust="spacing" textLength="7" x="156.0617" y="32.3899">1</text><text fill="#000000" font-family="sans-serif" font-size="13" lengthAdjust="spacing" textLength="10" x="155.1367" y="372.5202">N</text></g><!--MD5=[b6d13f4dae0b6d9408e1591697b6df83]
@startuml

skinparam svgLinkTarget _parent
skinparam linetype ortho
set namespaceSeparator none
class "<b><size:14>ClasseSC</b>\n<size:10>it.edu.marconiverona.listhashmapinstances" as it.edu.marconiverona.listhashmapinstances.ClasseSC  [[../../../../it/edu/marconiverona/listhashmapinstances/ClasseSC.html{it.edu.marconiverona.listhashmapinstances.ClasseSC}]] {
-int id
-String name
{static} -Map<Integer, ClasseSC> mappaClasseSC
-List<Integer> listaIdStudenteSC
+ClasseSC(int id,String name)
+int getId()
+void setId(int id)
+String getName()
+void setName(String name)
+String toString()
{static} +ClasseSC getClasseSCbyId(int id)
{static} +void removeClasseSCById(int id)
+void addStudenteSCId(int idStudenteSC)
}



it.edu.marconiverona.listhashmapinstances.ClasseSC "1" o-d- "N" it.edu.marconiverona.listhashmapinstances.ClasseSC: "mappaClasseSC"



@enduml

PlantUML version 1.2022.8(Sun Sep 25 11:00:33 CEST 2022)
(GPL source distribution)
Java Runtime: Java(TM) SE Runtime Environment
JVM: Java HotSpot(TM) 64-Bit Server VM
Default Encoding: UTF-8
Language: en
Country: null
--></g></svg>