<?xml version="1.0" encoding="UTF-8" standalone="no"?><svg xmlns="http://www.w3.org/2000/svg" xmlns:xlink="http://www.w3.org/1999/xlink" contentStyleType="text/css" height="117px" preserveAspectRatio="none" style="width:264px;height:117px;background:#FFFFFF;" version="1.1" viewBox="0 0 264 117" width="264px" zoomAndPan="magnify"><defs/><g><!--MD5=[f31822b20606b5a6f39c4f6409988f8e]
class it.edu.marconiverona.listhashmapinstances.ListHashMapInstances--><a href="../../../../it/edu/marconiverona/listhashmapinstances/ListHashMapInstances.html" target="_parent" title="it.edu.marconiverona.listhashmapinstances.ListHashMapInstances" xlink:actuate="onRequest" xlink:href="../../../../it/edu/marconiverona/listhashmapinstances/ListHashMapInstances.html" xlink:show="new" xlink:title="it.edu.marconiverona.listhashmapinstances.ListHashMapInstances" xlink:type="simple"><g id="elem_it.edu.marconiverona.listhashmapinstances.ListHashMapInstances"><rect codeLine="5" fill="#F1F1F1" height="96.7851" id="it.edu.marconiverona.listhashmapinstances.ListHashMapInstances" rx="2.5" ry="2.5" style="stroke:#181818;stroke-width:0.5;" width="243" x="7" y="7"/><ellipse cx="22" cy="28.335" fill="#ADD1B2" rx="11" ry="11" style="stroke:#181818;stroke-width:1.0;"/><path d="M21.4688,35.2569 Q19.7188,35.2569 18.5859,34.5147 Q17.4531,33.7725 16.8984,32.421 Q16.3438,31.0694 16.3438,29.2725 Q16.3438,27.2413 17,25.7881 Q17.6563,24.335 18.9375,23.5538 Q20.2188,22.7725 22.0938,22.7725 Q22.9844,22.7725 23.6563,22.9522 Q24.3281,23.1319 25.0156,23.4756 L24.2031,25.4913 Q23.5781,25.1788 23.0391,25.0538 Q22.5,24.9288 22.0156,24.9288 Q20.8438,24.9288 20.1406,25.46 Q19.4375,25.9913 19.1406,26.9444 Q18.8438,27.8975 18.8438,29.1631 Q18.8438,31.1788 19.5625,32.1397 Q20.2813,33.1006 21.875,33.1006 Q22.4688,33.1006 23.0938,32.9444 Q23.7188,32.7881 24.5469,32.4131 L24.5469,34.6319 Q23.8125,34.9444 23.0234,35.1006 Q22.2344,35.2569 21.4688,35.2569 Z " fill="#000000"/><text fill="#000000" font-family="sans-serif" font-size="14" font-weight="bold" lengthAdjust="spacing" textLength="156" x="63.5" y="26.9578">ListHashMapInstances</text><text fill="#000000" font-family="sans-serif" font-size="10" lengthAdjust="spacing" textLength="211" x="36" y="41.7417">it.edu.marconiverona.listhashmapinstances</text><line style="stroke:#181818;stroke-width:0.5;" x1="8" x2="249" y1="49.67" y2="49.67"/><line style="stroke:#181818;stroke-width:0.5;" x1="8" x2="249" y1="57.67" y2="57.67"/><ellipse cx="18" cy="72.6988" fill="#84BE84" rx="3" ry="3" style="stroke:#038048;stroke-width:1.0;"/><text fill="#000000" font-family="sans-serif" font-size="14" lengthAdjust="spacing" textLength="160" x="27" y="76.6278">ListHashMapInstances()</text><ellipse cx="18" cy="91.7563" fill="#84BE84" rx="3" ry="3" style="stroke:#038048;stroke-width:1.0;"/><text fill="#000000" font-family="sans-serif" font-size="14" lengthAdjust="spacing" text-decoration="underline" textLength="149" x="27" y="95.6853">void main(String args)</text></g></a><!--MD5=[4b32a39265fdc824ea3c32f8ae812941]
@startuml

skinparam svgLinkTarget _parent
skinparam linetype ortho
set namespaceSeparator none
class "<b><size:14>ListHashMapInstances</b>\n<size:10>it.edu.marconiverona.listhashmapinstances" as it.edu.marconiverona.listhashmapinstances.ListHashMapInstances  [[../../../../it/edu/marconiverona/listhashmapinstances/ListHashMapInstances.html{it.edu.marconiverona.listhashmapinstances.ListHashMapInstances}]] {
+ListHashMapInstances()
{static} +void main(String args)
}



@enduml

PlantUML version 1.2022.8(Sun Sep 25 11:00:33 CEST 2022)
(GPL source distribution)
Java Runtime: Java(TM) SE Runtime Environment
JVM: Java HotSpot(TM) 64-Bit Server VM
Default Encoding: UTF-8
Language: en
Country: null
--></g></svg>