<?xml version="1.0" encoding="UTF-8" standalone="no"?><svg xmlns="http://www.w3.org/2000/svg" xmlns:xlink="http://www.w3.org/1999/xlink" contentStyleType="text/css" height="147px" preserveAspectRatio="none" style="width:747px;height:147px;background:#FFFFFF;" version="1.1" viewBox="0 0 747 147" width="747px" zoomAndPan="magnify"><defs/><g><!--MD5=[02f20927942eff1c7d6f0666f7de3783]
cluster it.edu.marconiverona.listhashmapinstances--><g id="cluster_it.edu.marconiverona.listhashmapinstances"><a href="../../../../it/edu/marconiverona/listhashmapinstances/package-summary.html" target="_parent" title="it.edu.marconiverona.listhashmapinstances" xlink:actuate="onRequest" xlink:href="../../../../it/edu/marconiverona/listhashmapinstances/package-summary.html" xlink:show="new" xlink:title="it.edu.marconiverona.listhashmapinstances" xlink:type="simple"><path d="M116.5,6.5997 L420.5,6.5997 A3.75,3.75 0 0 1 423,9.0997 L430,31.6573 L737.5,31.6573 A2.5,2.5 0 0 1 740,34.1573 L740,130.0997 A2.5,2.5 0 0 1 737.5,132.5997 L116.5,132.5997 A2.5,2.5 0 0 1 114,130.0997 L114,9.0997 A2.5,2.5 0 0 1 116.5,6.5997 " fill="none" style="stroke:#000000;stroke-width:1.5;"/><line style="stroke:#000000;stroke-width:1.5;" x1="114" x2="430" y1="31.6573" y2="31.6573"/><text fill="#000000" font-family="sans-serif" font-size="14" font-weight="bold" lengthAdjust="spacing" textLength="303" x="118" y="23.5575">it.edu.marconiverona.listhashmapinstances</text></a></g><!--MD5=[436758b24b49770ffa2cc4b0fbc18c84]
class it.edu.marconiverona.listhashmapinstances.ClasseSC--><a href="../../../../it/edu/marconiverona/listhashmapinstances/ClasseSC.html" target="_parent" title="it.edu.marconiverona.listhashmapinstances.ClasseSC" xlink:actuate="onRequest" xlink:href="../../../../it/edu/marconiverona/listhashmapinstances/ClasseSC.html" xlink:show="new" xlink:title="it.edu.marconiverona.listhashmapinstances.ClasseSC" xlink:type="simple"><g id="elem_it.edu.marconiverona.listhashmapinstances.ClasseSC"><rect codeLine="7" fill="#F1F1F1" height="32" id="it.edu.marconiverona.listhashmapinstances.ClasseSC" rx="2.5" ry="2.5" style="stroke:#181818;stroke-width:0.5;" width="92" x="154" y="64.5997"/><ellipse cx="169" cy="80.5997" fill="#ADD1B2" rx="11" ry="11" style="stroke:#181818;stroke-width:1.0;"/><path d="M168.4688,87.5216 Q166.7188,87.5216 165.5859,86.7794 Q164.4531,86.0372 163.8984,84.6857 Q163.3438,83.3341 163.3438,81.5372 Q163.3438,79.506 164,78.0529 Q164.6563,76.5997 165.9375,75.8185 Q167.2188,75.0372 169.0938,75.0372 Q169.9844,75.0372 170.6563,75.2169 Q171.3281,75.3966 172.0156,75.7404 L171.2031,77.756 Q170.5781,77.4435 170.0391,77.3185 Q169.5,77.1935 169.0156,77.1935 Q167.8438,77.1935 167.1406,77.7247 Q166.4375,78.256 166.1406,79.2091 Q165.8438,80.1622 165.8438,81.4279 Q165.8438,83.4435 166.5625,84.4044 Q167.2813,85.3654 168.875,85.3654 Q169.4688,85.3654 170.0938,85.2091 Q170.7188,85.0529 171.5469,84.6779 L171.5469,86.8966 Q170.8125,87.2091 170.0234,87.3654 Q169.2344,87.5216 168.4688,87.5216 Z " fill="#000000"/><text fill="#000000" font-family="sans-serif" font-size="14" font-weight="bold" lengthAdjust="spacing" textLength="60" x="183" y="86.0288">ClasseSC</text></g></a><!--MD5=[2eeb212886ec2bfbcef467ec46ac53b3]
class it.edu.marconiverona.listhashmapinstances.StudenteSC--><a href="../../../../it/edu/marconiverona/listhashmapinstances/StudenteSC.html" target="_parent" title="it.edu.marconiverona.listhashmapinstances.StudenteSC" xlink:actuate="onRequest" xlink:href="../../../../it/edu/marconiverona/listhashmapinstances/StudenteSC.html" xlink:show="new" xlink:title="it.edu.marconiverona.listhashmapinstances.StudenteSC" xlink:type="simple"><g id="elem_it.edu.marconiverona.listhashmapinstances.StudenteSC"><rect codeLine="13" fill="#F1F1F1" height="32" id="it.edu.marconiverona.listhashmapinstances.StudenteSC" rx="2.5" ry="2.5" style="stroke:#181818;stroke-width:0.5;" width="112" x="347" y="64.5997"/><ellipse cx="362" cy="80.5997" fill="#ADD1B2" rx="11" ry="11" style="stroke:#181818;stroke-width:1.0;"/><path d="M361.4688,87.5216 Q359.7188,87.5216 358.5859,86.7794 Q357.4531,86.0372 356.8984,84.6857 Q356.3438,83.3341 356.3438,81.5372 Q356.3438,79.506 357,78.0529 Q357.6563,76.5997 358.9375,75.8185 Q360.2188,75.0372 362.0938,75.0372 Q362.9844,75.0372 363.6563,75.2169 Q364.3281,75.3966 365.0156,75.7404 L364.2031,77.756 Q363.5781,77.4435 363.0391,77.3185 Q362.5,77.1935 362.0156,77.1935 Q360.8438,77.1935 360.1406,77.7247 Q359.4375,78.256 359.1406,79.2091 Q358.8438,80.1622 358.8438,81.4279 Q358.8438,83.4435 359.5625,84.4044 Q360.2813,85.3654 361.875,85.3654 Q362.4688,85.3654 363.0938,85.2091 Q363.7188,85.0529 364.5469,84.6779 L364.5469,86.8966 Q363.8125,87.2091 363.0234,87.3654 Q362.2344,87.5216 361.4688,87.5216 Z " fill="#000000"/><text fill="#000000" font-family="sans-serif" font-size="14" font-weight="bold" lengthAdjust="spacing" textLength="80" x="376" y="86.0288">StudenteSC</text></g></a><!--MD5=[f31822b20606b5a6f39c4f6409988f8e]
class it.edu.marconiverona.listhashmapinstances.ListHashMapInstances--><a href="../../../../it/edu/marconiverona/listhashmapinstances/ListHashMapInstances.html" target="_parent" title="it.edu.marconiverona.listhashmapinstances.ListHashMapInstances" xlink:actuate="onRequest" xlink:href="../../../../it/edu/marconiverona/listhashmapinstances/ListHashMapInstances.html" xlink:show="new" xlink:title="it.edu.marconiverona.listhashmapinstances.ListHashMapInstances" xlink:type="simple"><g id="elem_it.edu.marconiverona.listhashmapinstances.ListHashMapInstances"><rect codeLine="19" fill="#F1F1F1" height="32" id="it.edu.marconiverona.listhashmapinstances.ListHashMapInstances" rx="2.5" ry="2.5" style="stroke:#181818;stroke-width:0.5;" width="188" x="536" y="64.5997"/><ellipse cx="551" cy="80.5997" fill="#ADD1B2" rx="11" ry="11" style="stroke:#181818;stroke-width:1.0;"/><path d="M550.4688,87.5216 Q548.7188,87.5216 547.5859,86.7794 Q546.4531,86.0372 545.8984,84.6857 Q545.3438,83.3341 545.3438,81.5372 Q545.3438,79.506 546,78.0529 Q546.6563,76.5997 547.9375,75.8185 Q549.2188,75.0372 551.0938,75.0372 Q551.9844,75.0372 552.6563,75.2169 Q553.3281,75.3966 554.0156,75.7404 L553.2031,77.756 Q552.5781,77.4435 552.0391,77.3185 Q551.5,77.1935 551.0156,77.1935 Q549.8438,77.1935 549.1406,77.7247 Q548.4375,78.256 548.1406,79.2091 Q547.8438,80.1622 547.8438,81.4279 Q547.8438,83.4435 548.5625,84.4044 Q549.2813,85.3654 550.875,85.3654 Q551.4688,85.3654 552.0938,85.2091 Q552.7188,85.0529 553.5469,84.6779 L553.5469,86.8966 Q552.8125,87.2091 552.0234,87.3654 Q551.2344,87.5216 550.4688,87.5216 Z " fill="#000000"/><text fill="#000000" font-family="sans-serif" font-size="14" font-weight="bold" lengthAdjust="spacing" textLength="156" x="565" y="86.0288">ListHashMapInstances</text></g></a><!--MD5=[ba4818507115bb0549fa0e6543ae7e8f]
reverse link it.edu.marconiverona.listhashmapinstances.ClasseSC to it.edu.marconiverona.listhashmapinstances.ClasseSC--><g id="link_it.edu.marconiverona.listhashmapinstances.ClasseSC_it.edu.marconiverona.listhashmapinstances.ClasseSC"><path codeLine="25" d="M200,50.0997 C200,50.0997 200,32.5997 200,32.5997 C200,32.5997 112,32.5997 112,32.5997 C112,32.5997 112,140.5997 112,140.5997 C112,140.5997 200,140.5997 200,140.5997 C200,140.5997 200,114.1397 200,96.3597 " fill="none" id="it.edu.marconiverona.listhashmapinstances.ClasseSC-backto-it.edu.marconiverona.listhashmapinstances.ClasseSC" style="stroke:#181818;stroke-width:1.0;"/><polygon fill="none" points="200,63.0997,204,57.0997,200,51.0997,196,57.0997,200,63.0997" style="stroke:#181818;stroke-width:1.0;"/><text fill="#000000" font-family="sans-serif" font-size="13" lengthAdjust="spacing" textLength="94" x="12" y="90.851">mappaClasseSC</text><text fill="#000000" font-family="sans-serif" font-size="13" lengthAdjust="spacing" textLength="7" x="191.7531" y="52.9021">1</text><text fill="#000000" font-family="sans-serif" font-size="13" lengthAdjust="spacing" textLength="10" x="173.5" y="118.3307">N</text></g><!--MD5=[8441e79cb2ed3bfd148873b7c4113381]
reverse link it.edu.marconiverona.listhashmapinstances.StudenteSC to it.edu.marconiverona.listhashmapinstances.StudenteSC--><g id="link_it.edu.marconiverona.listhashmapinstances.StudenteSC_it.edu.marconiverona.listhashmapinstances.StudenteSC"><path codeLine="26" d="M403,50.3197 C403,50.3197 403,20.5997 403,20.5997 C403,20.5997 509.5,20.5997 509.5,20.5997 C509.5,20.5997 509.5,128.5997 509.5,128.5997 C509.5,128.5997 403,128.5997 403,128.5997 C403,128.5997 403,110.5497 403,96.5797 " fill="none" id="it.edu.marconiverona.listhashmapinstances.StudenteSC-backto-it.edu.marconiverona.listhashmapinstances.StudenteSC" style="stroke:#181818;stroke-width:1.0;"/><polygon fill="none" points="403,63.3197,407,57.3197,403,51.3197,399,57.3197,403,63.3197" style="stroke:#181818;stroke-width:1.0;"/><text fill="#000000" font-family="sans-serif" font-size="13" lengthAdjust="spacing" textLength="112" x="515.5" y="66.631">mappaStudenteSC</text><text fill="#000000" font-family="sans-serif" font-size="13" lengthAdjust="spacing" textLength="7" x="394.7094" y="52.9015">1</text><text fill="#000000" font-family="sans-serif" font-size="13" lengthAdjust="spacing" textLength="10" x="377.25" y="118.1032">N</text></g><!--MD5=[9e7fd8a456c56aeb565f9f81b7929cde]
@startuml

skinparam svgLinkTarget _parent
skinparam linetype ortho
package it.edu.marconiverona.listhashmapinstances [[../../../../it/edu/marconiverona/listhashmapinstances/package-summary.html{it.edu.marconiverona.listhashmapinstances}]] {
}

class "<b><size:14>ClasseSC</b>" as it.edu.marconiverona.listhashmapinstances.ClasseSC  [[../../../../it/edu/marconiverona/listhashmapinstances/ClasseSC.html{it.edu.marconiverona.listhashmapinstances.ClasseSC}]] {
}

hide it.edu.marconiverona.listhashmapinstances.ClasseSC fields
hide it.edu.marconiverona.listhashmapinstances.ClasseSC methods

class "<b><size:14>StudenteSC</b>" as it.edu.marconiverona.listhashmapinstances.StudenteSC  [[../../../../it/edu/marconiverona/listhashmapinstances/StudenteSC.html{it.edu.marconiverona.listhashmapinstances.StudenteSC}]] {
}

hide it.edu.marconiverona.listhashmapinstances.StudenteSC fields
hide it.edu.marconiverona.listhashmapinstances.StudenteSC methods

class "<b><size:14>ListHashMapInstances</b>" as it.edu.marconiverona.listhashmapinstances.ListHashMapInstances  [[../../../../it/edu/marconiverona/listhashmapinstances/ListHashMapInstances.html{it.edu.marconiverona.listhashmapinstances.ListHashMapInstances}]] {
}

hide it.edu.marconiverona.listhashmapinstances.ListHashMapInstances fields
hide it.edu.marconiverona.listhashmapinstances.ListHashMapInstances methods

it.edu.marconiverona.listhashmapinstances.ClasseSC "1" o-d- "N" it.edu.marconiverona.listhashmapinstances.ClasseSC: "mappaClasseSC"
it.edu.marconiverona.listhashmapinstances.StudenteSC "1" o-d- "N" it.edu.marconiverona.listhashmapinstances.StudenteSC: "mappaStudenteSC"

@enduml

PlantUML version 1.2022.8(Sun Sep 25 11:00:33 CEST 2022)
(GPL source distribution)
Java Runtime: Java(TM) SE Runtime Environment
JVM: Java HotSpot(TM) 64-Bit Server VM
Default Encoding: UTF-8
Language: en
Country: null
--></g></svg>