<?xml version="1.0" encoding="UTF-8" standalone="no"?><svg xmlns="http://www.w3.org/2000/svg" xmlns:xlink="http://www.w3.org/1999/xlink" contentStyleType="text/css" height="414px" preserveAspectRatio="none" style="width:517px;height:414px;background:#FFFFFF;" version="1.1" viewBox="0 0 517 414" width="517px" zoomAndPan="magnify"><defs/><g><!--MD5=[2eeb212886ec2bfbcef467ec46ac53b3]
class it.edu.marconiverona.listhashmapinstances.StudenteSC--><a href="../../../../it/edu/marconiverona/listhashmapinstances/StudenteSC.html" target="_parent" title="it.edu.marconiverona.listhashmapinstances.StudenteSC" xlink:actuate="onRequest" xlink:href="../../../../it/edu/marconiverona/listhashmapinstances/StudenteSC.html" xlink:show="new" xlink:title="it.edu.marconiverona.listhashmapinstances.StudenteSC" xlink:type="simple"><g id="elem_it.edu.marconiverona.listhashmapinstances.StudenteSC"><rect codeLine="5" fill="#F1F1F1" height="325.4754" id="it.edu.marconiverona.listhashmapinstances.StudenteSC" rx="2.5" ry="2.5" style="stroke:#181818;stroke-width:0.5;" width="337" x="7" y="44"/><ellipse cx="65.75" cy="65.335" fill="#ADD1B2" rx="11" ry="11" style="stroke:#181818;stroke-width:1.0;"/><path d="M65.2188,72.2569 Q63.4688,72.2569 62.3359,71.5147 Q61.2031,70.7725 60.6484,69.421 Q60.0938,68.0694 60.0938,66.2725 Q60.0938,64.2413 60.75,62.7881 Q61.4063,61.335 62.6875,60.5538 Q63.9688,59.7725 65.8438,59.7725 Q66.7344,59.7725 67.4063,59.9522 Q68.0781,60.1319 68.7656,60.4756 L67.9531,62.4913 Q67.3281,62.1788 66.7891,62.0538 Q66.25,61.9288 65.7656,61.9288 Q64.5938,61.9288 63.8906,62.46 Q63.1875,62.9913 62.8906,63.9444 Q62.5938,64.8975 62.5938,66.1631 Q62.5938,68.1788 63.3125,69.1397 Q64.0313,70.1006 65.625,70.1006 Q66.2188,70.1006 66.8438,69.9444 Q67.4688,69.7881 68.2969,69.4131 L68.2969,71.6319 Q67.5625,71.9444 66.7734,72.1006 Q65.9844,72.2569 65.2188,72.2569 Z " fill="#000000"/><text fill="#000000" font-family="sans-serif" font-size="14" font-weight="bold" lengthAdjust="spacing" textLength="80" x="151.75" y="63.9578">StudenteSC</text><text fill="#000000" font-family="sans-serif" font-size="10" lengthAdjust="spacing" textLength="211" x="86.25" y="78.7417">it.edu.marconiverona.listhashmapinstances</text><line style="stroke:#181818;stroke-width:0.5;" x1="8" x2="343" y1="86.67" y2="86.67"/><rect fill="none" height="6" style="stroke:#C82930;stroke-width:1.0;" width="6" x="15" y="98.6988"/><text fill="#000000" font-family="sans-serif" font-size="14" lengthAdjust="spacing" textLength="35" x="27" y="105.6278">int id</text><rect fill="none" height="6" style="stroke:#C82930;stroke-width:1.0;" width="6" x="15" y="117.7563"/><text fill="#000000" font-family="sans-serif" font-size="14" lengthAdjust="spacing" textLength="108" x="27" y="124.6853">String matricola</text><rect fill="none" height="6" style="stroke:#C82930;stroke-width:1.0;" width="6" x="15" y="136.8139"/><text fill="#000000" font-family="sans-serif" font-size="14" lengthAdjust="spacing" text-decoration="underline" textLength="311" x="27" y="143.7429">Map&lt;Integer, StudenteSC&gt; mappaStudenteSC</text><rect fill="none" height="6" style="stroke:#C82930;stroke-width:1.0;" width="6" x="15" y="155.8714"/><text fill="#000000" font-family="sans-serif" font-size="14" lengthAdjust="spacing" textLength="95" x="27" y="162.8004">int idClasseSC</text><line style="stroke:#181818;stroke-width:0.5;" x1="8" x2="343" y1="170.9001" y2="170.9001"/><ellipse cx="18" cy="185.9289" fill="#84BE84" rx="3" ry="3" style="stroke:#038048;stroke-width:1.0;"/><text fill="#000000" font-family="sans-serif" font-size="14" lengthAdjust="spacing" textLength="233" x="27" y="189.8579">StudenteSC(int id,String matricola)</text><ellipse cx="18" cy="204.9864" fill="#84BE84" rx="3" ry="3" style="stroke:#038048;stroke-width:1.0;"/><text fill="#000000" font-family="sans-serif" font-size="14" lengthAdjust="spacing" textLength="66" x="27" y="208.9155">int getId()</text><ellipse cx="18" cy="224.044" fill="#84BE84" rx="3" ry="3" style="stroke:#038048;stroke-width:1.0;"/><text fill="#000000" font-family="sans-serif" font-size="14" lengthAdjust="spacing" textLength="109" x="27" y="227.973">void setId(int id)</text><ellipse cx="18" cy="243.1015" fill="#84BE84" rx="3" ry="3" style="stroke:#038048;stroke-width:1.0;"/><text fill="#000000" font-family="sans-serif" font-size="14" lengthAdjust="spacing" textLength="138" x="27" y="247.0305">String getMatricola()</text><ellipse cx="18" cy="262.159" fill="#84BE84" rx="3" ry="3" style="stroke:#038048;stroke-width:1.0;"/><text fill="#000000" font-family="sans-serif" font-size="14" lengthAdjust="spacing" textLength="231" x="27" y="266.088">void setMatricola(String matricola)</text><ellipse cx="18" cy="281.2165" fill="#84BE84" rx="3" ry="3" style="stroke:#038048;stroke-width:1.0;"/><text fill="#000000" font-family="sans-serif" font-size="14" lengthAdjust="spacing" textLength="107" x="27" y="285.1456">String toString()</text><ellipse cx="18" cy="300.2741" fill="#84BE84" rx="3" ry="3" style="stroke:#038048;stroke-width:1.0;"/><text fill="#000000" font-family="sans-serif" font-size="14" lengthAdjust="spacing" textLength="126" x="27" y="304.2031">int getIdClasseSC()</text><ellipse cx="18" cy="319.3316" fill="#84BE84" rx="3" ry="3" style="stroke:#038048;stroke-width:1.0;"/><text fill="#000000" font-family="sans-serif" font-size="14" lengthAdjust="spacing" textLength="229" x="27" y="323.2606">void setIdClasseSC(int idClasseSC)</text><ellipse cx="18" cy="338.3891" fill="#84BE84" rx="3" ry="3" style="stroke:#038048;stroke-width:1.0;"/><text fill="#000000" font-family="sans-serif" font-size="14" lengthAdjust="spacing" text-decoration="underline" textLength="256" x="27" y="342.3181">StudenteSC getStudenteSCbyID(int id)</text><ellipse cx="18" cy="357.4466" fill="#84BE84" rx="3" ry="3" style="stroke:#038048;stroke-width:1.0;"/><text fill="#000000" font-family="sans-serif" font-size="14" lengthAdjust="spacing" text-decoration="underline" textLength="233" x="27" y="361.3757">void removeStudenteSCById(int id)</text></g></a><!--MD5=[8441e79cb2ed3bfd148873b7c4113381]
reverse link it.edu.marconiverona.listhashmapinstances.StudenteSC to it.edu.marconiverona.listhashmapinstances.StudenteSC--><g id="link_it.edu.marconiverona.listhashmapinstances.StudenteSC_it.edu.marconiverona.listhashmapinstances.StudenteSC"><path codeLine="24" d="M175.5,29.67 C175.5,29.67 175.5,6 175.5,6 C175.5,6 386,6 386,6 C386,6 386,407 386,407 C386,407 175.5,407 175.5,407 C175.5,407 175.5,391.36 175.5,368.82 " fill="none" id="it.edu.marconiverona.listhashmapinstances.StudenteSC-backto-it.edu.marconiverona.listhashmapinstances.StudenteSC" style="stroke:#181818;stroke-width:1.0;"/><polygon fill="none" points="175.5,42.67,179.5,36.67,175.5,30.67,171.5,36.67,175.5,42.67" style="stroke:#181818;stroke-width:1.0;"/><text fill="#000000" font-family="sans-serif" font-size="13" lengthAdjust="spacing" textLength="112" x="392" y="204.6412">mappaStudenteSC</text><text fill="#000000" font-family="sans-serif" font-size="13" lengthAdjust="spacing" textLength="7" x="174.0398" y="32.6022">1</text><text fill="#000000" font-family="sans-serif" font-size="13" lengthAdjust="spacing" textLength="10" x="173.1289" y="391.5145">N</text></g><!--MD5=[71ab6a83d784cd9a4624750669bc91d2]
@startuml

skinparam svgLinkTarget _parent
skinparam linetype ortho
set namespaceSeparator none
class "<b><size:14>StudenteSC</b>\n<size:10>it.edu.marconiverona.listhashmapinstances" as it.edu.marconiverona.listhashmapinstances.StudenteSC  [[../../../../it/edu/marconiverona/listhashmapinstances/StudenteSC.html{it.edu.marconiverona.listhashmapinstances.StudenteSC}]] {
-int id
-String matricola
{static} -Map<Integer, StudenteSC> mappaStudenteSC
-int idClasseSC
+StudenteSC(int id,String matricola)
+int getId()
+void setId(int id)
+String getMatricola()
+void setMatricola(String matricola)
+String toString()
+int getIdClasseSC()
+void setIdClasseSC(int idClasseSC)
{static} +StudenteSC getStudenteSCbyID(int id)
{static} +void removeStudenteSCById(int id)
}



it.edu.marconiverona.listhashmapinstances.StudenteSC "1" o-d- "N" it.edu.marconiverona.listhashmapinstances.StudenteSC: "mappaStudenteSC"


@enduml

PlantUML version 1.2022.8(Sun Sep 25 11:00:33 CEST 2022)
(GPL source distribution)
Java Runtime: Java(TM) SE Runtime Environment
JVM: Java HotSpot(TM) 64-Bit Server VM
Default Encoding: UTF-8
Language: en
Country: null
--></g></svg>